#!OML:ASF H:\LiuWeirdWalks\Patient Classification 1\Patient 1\Session 1\male.ASF
:FULLY-SPECIFIED
:DEGREES
818
root 2.09207 18.011 -1.91974 3.92124 4.43621 -4.87912
lowerback 17.1406 -2.18646 -11.875
upperback 2.6845 -5.42241 -5.77226
thorax -6.17595 -2.41574 1.62897
lowerneck -16.1937 1.80143 7.76626
upperneck 13.9786 -0.449399 6.02318
head 7.00232 0.753042 0.660362
rclavicle 4.45278e-014 1.17681e-013
rhumerus -21.5638 -29.8714 7.3415
rradius 34.234
rwrist -2.56814
rhand -21.3398 -3.71922
rfingers 7.12502
rthumb 5.04623 -33.6391
lclavicle 4.45278e-014 1.17681e-013
lhumerus -30.703 34.5316 38.672
lradius 34.5577
lwrist 9.08735
lhand -20.0117 -2.67604
lfingers 7.12502
lthumb 6.32857 27.2094
rfemur -29.2856 -5.53272 18.2278
rtibia 36.0363
rfoot -9.32363 -18.8381
rtoes -7.2656
lfemur -5.66498 -5.85387 -12.4806
ltibia 27.0309
lfoot -11.1646 24.1977
ltoes -7.8745
819
root 2.08354 18.0105 -1.85888 3.96423 4.34536 -4.5853
lowerback 17.0951 -2.16748 -11.7835
upperback 2.65502 -5.36988 -5.6519
thorax -6.1849 -2.3908 1.69654
lowerneck -16.2007 1.79223 7.76547
upperneck 14.0089 -0.42777 5.80941
head 7.01097 0.745412 0.593274
rclavicle 4.53229e-014 6.04305e-014
rhumerus -21.7381 -29.7738 7.10308
rradius 34.2327
rwrist -2.65843
rhand -21.6226 -3.81085
rfingers 7.12502
rthumb 4.77316 -33.7371
lclavicle 4.53229e-014 6.04305e-014
lhumerus -30.5767 34.568 38.4292
lradius 34.5673
lwrist 9.02587
lhand -20.0678 -2.58659
lfingers 7.12502
lthumb 6.27432 27.3005
rfemur -29.5985 -5.42354 17.7678
rtibia 35.1708
rfoot -8.89276 -18.6433
rtoes -7.37684
lfemur -5.25429 -5.76118 -12.7999
ltibia 26.6156
lfoot -11.0127 24.2167
ltoes -8.01172
820
root 2.07523 18.0096 -1.79669 4.00855 4.24824 -4.27777
lowerback 17.0205 -2.14581 -11.6867
upperback 2.64108 -5.30619 -5.53032
thorax -6.16249 -2.36282 1.75829
lowerneck -16.246 1.78324 7.77293
upperneck 14.0348 -0.408344 5.57678
head 7.02462 0.735859 0.518812
rclavicle -4.21423e-014 -1.27222e-013
rhumerus -21.9243 -29.7263 6.8511
rradius 34.2145
rwrist -2.70346
rhand -21.6446 -3.46471
rfingers 7.12502
rthumb 4.75197 -33.3914
lclavicle -4.21423e-014 -1.27222e-013
lhumerus -30.4428 34.5871 38.1627
lradius 34.5982
lwrist 9.00073
lhand -20.0995 -2.5286
lfingers 7.12502
lthumb 6.24377 27.3594
rfemur -29.8812 -5.30988 17.2917
rtibia 34.3052
rfoot -8.45584 -18.4682
rtoes -7.47481
lfemur -4.82944 -5.64757 -13.1313
ltibia 26.1876
lfoot -10.8629 24.2106
ltoes -8.17264
821
root 2.06701 18.0081 -1.73384 4.06006 4.15466 -3.95568
lowerback 16.9342 -2.12605 -11.5847
upperback 2.62859 -5.24196 -5.40585
thorax -6.13236 -2.33515 1.81941
lowerneck -16.3049 1.76693 7.75158
upperneck 14.0596 -0.39489 5.35364
head 7.04016 0.72282 0.451427
rclavicle -2.8625e-014 -1.27222e-014
rhumerus -22.1113 -29.6952 6.58467
rradius 34.1864
rwrist -2.72504
rhand -21.623 -3.2163
rfingers 7.12502
rthumb 4.77285 -33.1425
lclavicle -2.8625e-014 -1.27222e-014
lhumerus -30.313 34.5984 37.8635
lradius 34.6412
lwrist 8.99835
lhand -20.1338 -2.45736
lfingers 7.12502
lthumb 6.21066 27.4316
rfemur -30.1411 -5.19744 16.7996
rtibia 33.4469
rfoot -8.01229 -18.316
rtoes -7.56409
lfemur -4.40514 -5.52049 -13.4728
ltibia 25.7537
lfoot -10.7206 24.1745
ltoes -8.34276
822
root 2.05903 18.0058 -1.66968 4.11781 4.06614 -3.6186
lowerback 16.8301 -2.11067 -11.4748
upperback 2.61634 -5.17928 -5.27895
thorax -6.09252 -2.30893 1.87814
lowerneck -16.3264 1.7596 7.7657
upperneck 14.0217 -0.359803 5.07815
head 7.02862 0.713809 0.362864
rclavicle -2.78299e-014 -9.54166e-015
rhumerus -22.2948 -29.6455 6.3017
rradius 34.1447
rwrist -2.73911
rhand -21.5693 -2.99087
rfingers 7.12502
rthumb 4.82464 -32.9159
lclavicle -2.78299e-014 -9.54166e-015
lhumerus -30.2063 34.5904 37.528
lradius 34.7053
lwrist 9.04241
lhand -20.1389 -2.41172
lfingers 7.12502
lthumb 6.20573 27.4774
rfemur -30.3758 -5.09188 16.2931
rtibia 32.6043
rfoot -7.58264 -18.1919
rtoes -7.64352
lfemur -3.98257 -5.38084 -13.8258
ltibia 25.3195
lfoot -10.5792 24.1121
ltoes -8.53339
823
root 2.05078 18.0029 -1.60473 4.18473 3.98535 -3.28193
lowerback 16.7259 -2.09903 -11.3483
upperback 2.59509 -5.1194 -5.14362
thorax -6.06295 -2.28351 1.93759
lowerneck -16.3313 1.758 7.79074
upperneck 13.9592 -0.310553 4.77027
head 7.0062 0.707945 0.263269
rclavicle 1.03368e-014 2.22639e-014
rhumerus -22.4569 -29.6285 6.00637
rradius 34.0658
rwrist -2.70985
rhand -21.4942 -2.8767
rfingers 7.12502
rthumb 4.89718 -32.8001
lclavicle 1.03368e-014 2.22639e-014
lhumerus -30.1186 34.582 37.1548
lradius 34.7697
lwrist 9.07734
lhand -20.1389 -2.40775
lfingers 7.12502
lthumb 6.2057 27.4814
rfemur -30.5922 -4.98214 15.7894
rtibia 31.7839
rfoot -7.17138 -18.1057
rtoes -7.71914
lfemur -3.57529 -5.22936 -14.1695
ltibia 24.8931
lfoot -10.4475 24.0208
ltoes -8.72109
824
root 2.04246 17.9989 -1.53828 4.25406 3.90722 -2.93999
lowerback 16.6246 -2.08741 -11.2099
upperback 2.56558 -5.05875 -5.00111
thorax -6.04437 -2.25707 1.99845
lowerneck -16.3633 1.74875 7.78704
upperneck 13.9152 -0.270628 4.47034
head 6.99449 0.698069 0.170214
rclavicle 5.56597e-015 3.18055e-015
rhumerus -22.5978 -29.5717 5.68808
rradius 33.9837
rwrist -2.74948
rhand -21.4276 -2.83757
rfingers 7.12502
rthumb 4.96151 -32.7595
lclavicle 5.56597e-015 3.18055e-015
lhumerus -30.0461 34.5686 36.7504
lradius 34.8244
lwrist 9.13206
lhand -20.1453 -2.3986
lfingers 7.12502
lthumb 6.19958 27.4907
rfemur -30.7799 -4.86386 15.2807
rtibia 30.9917
rfoot -6.81074 -18.0692
rtoes -7.81164
lfemur -3.17419 -5.06575 -14.5134
ltibia 24.4799
lfoot -10.3342 23.9081
ltoes -8.90747
825
root 2.03421 17.9942 -1.47017 4.3221 3.84589 -2.57515
lowerback 16.5296 -2.07698 -11.0735
upperback 2.53236 -5.00136 -4.85423
thorax -6.03236 -2.23161 2.06602
lowerneck -16.3844 1.73642 7.77005
upperneck 13.8717 -0.228789 4.15952
head 6.9811 0.687323 0.0758535
rclavicle 3.18055e-015 3.81667e-014
rhumerus -22.7224 -29.5395 5.37157
rradius 33.8795
rwrist -2.76644
rhand -21.38 -2.83515
rfingers 7.12502
rthumb 5.00746 -32.756
lclavicle 3.18055e-015 3.81667e-014
lhumerus -29.9841 34.5621 36.3265
lradius 34.8698
lwrist 9.18733
lhand -20.1478 -2.38989
lfingers 7.12502
lthumb 6.19711 27.4995
rfemur -30.9308 -4.76121 14.7491
rtibia 30.2339
rfoot -6.51898 -18.0718
rtoes -7.90308
lfemur -2.77932 -4.90525 -14.8779
ltibia 24.0857
lfoot -10.2317 23.7778
ltoes -9.1065
826
root 2.02521 17.9886 -1.40089 4.39055 3.8 -2.21003
lowerback 16.4466 -2.06632 -10.9268
upperback 2.48952 -4.94423 -4.69609
thorax -6.0372 -2.20519 2.14087
lowerneck -16.4214 1.70971 7.71519
upperneck 13.8672 -0.204282 3.8646
head 6.98294 0.669502 -0.00886306
rclavicle 1.98785e-014 6.36111e-014
rhumerus -22.8241 -29.5285 5.05501
rradius 33.7509
rwrist -2.75842
rhand -21.3521 -2.86175
rfingers 7.12502
rthumb 5.03441 -32.7819
lclavicle 1.98785e-014 6.36111e-014
lhumerus -29.9406 34.5313 35.8907
lradius 34.9178
lwrist 9.27299
lhand -20.1763 -2.37911
lfingers 7.12502
lthumb 6.16962 27.511
rfemur -31.0526 -4.65011 14.2206
rtibia 29.5197
rfoot -6.31099 -18.1371
rtoes -7.99759
lfemur -2.39511 -4.73978 -15.2319
ltibia 23.7069
lfoot -10.1377 23.6237
ltoes -9.31834
827
root 2.01562 17.9818 -1.33086 4.45955 3.75931 -1.83667
lowerback 16.3592 -2.05116 -10.7766
upperback 2.45318 -4.87899 -4.53202
thorax -6.03321 -2.17552 2.21803
lowerneck -16.4333 1.677 7.64899
upperneck 13.8308 -0.179436 3.56249
head 6.97012 0.649002 -0.0944087
rclavicle -2.70347e-014 -1.90833e-014
rhumerus -22.9329 -29.5067 4.73984
rradius 33.6483
rwrist -2.78267
rhand -21.3273 -2.9871
rfingers 7.12502
rthumb 5.05828 -32.9067
lclavicle -2.70347e-014 -1.90833e-014
lhumerus -29.8809 34.5157 35.4582
lradius 34.9557
lwrist 9.35591
lhand -20.2167 -2.3236
lfingers 7.12502
lthumb 6.13061 27.5677
rfemur -31.1534 -4.53072 13.6873
rtibia 28.8574
rfoot -6.19561 -18.2511
rtoes -8.10387
lfemur -2.01927 -4.56753 -15.5884
ltibia 23.3432
lfoot -10.0487 23.4592
ltoes -9.54263
828
root 2.00553 17.9742 -1.25952 4.52686 3.7293 -1.44623
lowerback 16.2604 -2.03513 -10.6272
upperback 2.42504 -4.8104 -4.36785
thorax -6.01429 -2.1452 2.29408
lowerneck -16.45 1.6504 7.62737
upperneck 13.7622 -0.145905 3.20229
head 6.94766 0.628663 -0.205048
rclavicle -4.69132e-014 -5.725e-014
rhumerus -23.0454 -29.4937 4.42591
rradius 33.5518
rwrist -2.80528
rhand -21.3128 -3.14718
rfingers 7.12502
rthumb 5.0723 -33.0665
lclavicle -4.69132e-014 -5.725e-014
lhumerus -29.8231 34.5028 35.0202
lradius 34.9953
lwrist 9.44025
lhand -20.2221 -2.30609
lfingers 7.12502
lthumb 6.12537 27.5854
rfemur -31.2283 -4.41986 13.142
rtibia 28.2519
rfoot -6.16393 -18.3908
rtoes -8.21076
lfemur -1.64739 -4.38467 -15.9576
ltibia 22.9959
lfoot -9.95912 23.2815
ltoes -9.79188
829
root 1.99475 17.9655 -1.18696 4.59324 3.69827 -1.04864
lowerback 16.1573 -2.01689 -10.4744
upperback 2.39641 -4.73789 -4.20028
thorax -5.99402 -2.11306 2.37084
lowerneck -16.4621 1.62519 7.62016
upperneck 13.6894 -0.107822 2.80826
head 6.92321 0.608147 -0.32847
rclavicle -4.29375e-014 -5.40694e-014
rhumerus -23.1569 -29.4281 4.09901
rradius 33.4978
rwrist -2.90031
rhand -21.2995 -3.40455
rfingers 7.12502
rthumb 5.08521 -33.3235
lclavicle -4.29375e-014 -5.40694e-014
lhumerus -29.78 34.4903 34.5731
lradius 35.0402
lwrist 9.5119
lhand -20.2259 -2.2725
lfingers 7.12502
lthumb 6.12175 27.619
rfemur -31.2857 -4.29881 12.5956
rtibia 27.7095
rfoot -6.18487 -18.5531
rtoes -8.30943
lfemur -1.2797 -4.17559 -16.3273
ltibia 22.6654
lfoot -9.87001 23.0878
ltoes -10.0596
830
root 1.98312 17.9563 -1.11313 4.66315 3.67184 -0.653709
lowerback 16.037 -1.9997 -10.3074
upperback 2.37174 -4.6616 -4.02814
thorax -5.96111 -2.08011 2.44281
lowerneck -16.4742 1.60038 7.61971
upperneck 13.5954 -0.0662333 2.39026
head 6.89209 0.586925 -0.460344
rclavicle -5.725e-014 -7.15625e-014
rhumerus -23.2769 -29.333 3.7643
rradius 33.4883
rwrist -3.05409
rhand -21.2919 -3.72217
rfingers 7.12502
rthumb 5.09249 -33.641
lclavicle -5.725e-014 -7.15625e-014
lhumerus -29.7443 34.4831 34.1188
lradius 35.0886
lwrist 9.56645
lhand -20.1984 -2.24653
lfingers 7.12502
lthumb 6.14832 27.6443
rfemur -31.3302 -4.17657 12.063
rtibia 27.2323
rfoot -6.24084 -18.7379
rtoes -8.3803
lfemur -0.9223 -3.94613 -16.6844
ltibia 22.3521
lfoot -9.78584 22.8739
ltoes -10.34
831
root 1.97081 17.9464 -1.03768 4.72795 3.63815 -0.258743
lowerback 15.91 -1.97786 -10.1298
upperback 2.35278 -4.57628 -3.85314
thorax -5.91999 -2.04353 2.50969
lowerneck -16.5062 1.58525 7.65443
upperneck 13.4932 -0.0141777 1.92492
head 6.86217 0.568402 -0.611898
rclavicle -5.08889e-014 -3.18055e-014
rhumerus -23.4023 -29.2677 3.43276
rradius 33.4957
rwrist -3.19918
rhand -21.28 -4.06994
rfingers 7.12502
rthumb 5.10396 -33.9885
lclavicle -5.08889e-014 -3.18055e-014
lhumerus -29.7103 34.5129 33.6592
lradius 35.1335
lwrist 9.57179
lhand -20.1384 -2.2625
lfingers 7.12502
lthumb 6.20624 27.6266
rfemur -31.356 -4.05825 11.5456
rtibia 26.8231
rfoot -6.30633 -18.9128
rtoes -8.41801
lfemur -0.563522 -3.69569 -17.0347
ltibia 22.0591
lfoot -9.71615 22.6451
ltoes -10.6317
